<svg xmlns="http://www.w3.org/2000/svg" xmlns:xlink="http://www.w3.org/1999/xlink" width="100%" height="100%" viewBox="0 0 1384 1271" fill-rule="evenodd" stroke-linejoin="round" stroke-miterlimit="2"><path d="M587.377 254.447l.58.003.6.004.58.007.58.008.6.01.58.012.58.014 1.17.033.58.02.58.02.58.023.58.025.57.026.58.03.58.03.58.032.58.034 1.15.073.57.04.58.04.57.043.58.045.57.046 1.15.1.57.05.57.054.57.055.57.057.57.06 1.14.123.57.064.57.066 1.13.137.57.072.56.072.57.075.56.077.57.078.56.08.56.082.56.083.57.085.56.087 1.12.18.56.092.56.093.56.096 1.67.296 1.1.206 1.1.213.55.11.55.1.56.113.55.114.55.115.55.117.55.12 1.1.243.55.124.55.126 1.1.256.54.13.55.132.54.134.55.135 1.08.276.54.14.55.142 1.08.29.53.147.54.148 1.08.302.54.154.53.155.54.156 1.6.48.53.163.53.164 1.06.334.53.17.53.17.53.172.53.174.52.176.53.177.52.18.53.18.52.182.53.184.52.185.52.186 1.04.378.52.19.52.193.52.195 1.55.592.5.2.5.202.52.204.5.205.5.206.5.208 1.02.42.5.212.5.214.5.216.5.217.5.22.5.22.5.22.5.223.5.225 1 .453.5.23.5.23.5.232.5.233.5.235.5.236.5.238.5.24.5.24.5.242.5.243.5.245.98.494.5.25.48.25.98.506.48.255.5.257.48.258.48.26.48.26.96.525.48.265.48.266.48.268.47.27.48.27.47.272.48.273.47.275.47.276.47.277.94.56.47.282.46.283.47.284.46.285.47.288.46.288.46.3.47.29.46.292.46.294.45.295.92.594.46.3.9.603.46.303.45.304.45.306.45.307.9.618.44.31.9.626.44.315.88.634.45.32.44.32.43.32.44.323.88.65.43.327.44.328.43.33.43.33.43.332.43.333.43.334.43.335.43.337.42.338.43.34.42.34.42.342.43.343.42.344.84.692.4.348.42.35.4.35.42.352.82.706.4.356.42.356.4.358.4.358.4.36.4.36.4.363.4.363.4.365.4.366.4.367.8.738.4.37.4.372.4.373.4.374.4.375.78.754.4.38.4.38.38.38.4.382.38.384.4.384.38.386.76.775.38.39.38.4.37.392.38.392.37.394.38.395.37.395.74.795.37.4.36.4.37.4.37.403.36.403.36.405.36.406.72.815.36.41.35.4.36.41.35.412.36.413.7.83.7.834.34.42.35.42.34.42.34.422.35.423.34.424.33.425.34.426.34.427.33.428.34.43.33.43.33.43.33.432.66.867.33.436.32.436.33.437.64.877.96 1.324.3.443.32.444.3.445.32.447.3.447.3.448.62.9.3.45.6.905.3.454.3.454.3.456.3.457.3.458.3.458.3.46.3.46.58.924.3.463.3.465.28.465.3.466.56.935.84 1.41.27.472.28.472.54.948.28.475.26.476.54.955.26.48.27.48.52.962.26.482.26.483.25.484.26.485.75 1.46.25.488.25.49.25.5.24.49.25.492.24.492.72 1.483.23.496.24.496.7 1.495.7 1.502.44 1.006.22.504.66 1.517.22.507.84 2.036.42 1.023.2.513.2.513.6 1.545.2.516.2.517.2.518.76 2.08.18.522.2.522.18.523.72 2.1.18.526.5 1.585.5 1.6.32 1.064.17.533.16.534.15.534.16.536.16.535.3 1.074.45 1.615.14.54.15.54.42 1.626.13.543.14.544.13.544.14.545.26 1.092.12.547.13.547.24 1.097.13.55.1.55.24 1.102.55 2.765.1.555.5 2.783.1.56.1.56.27 1.68.08.56.1.562.4 2.818.07.565.08.566.14 1.133.06.567.07.568.06.568.07.57.12 1.14.05.57.06.57.25 2.863.04.574.05.574.08 1.15.03.576.04.576.03.577.04.578.03.578.02.578.06 1.16.08 2.322.01.58.02.582.03 1.75v.584l.01.585v2.34l-.01.584v.584l-.03 1.75-.02.582-.01.582-.08 2.322-.06 1.158-.02.578-.03.578-.04.578-.03.577-.04.576-.03.576-.08 1.15-.05.574-.04.574-.25 2.863-.06.57-.05.57-.12 1.14-.07.57-.06.568-.07.568-.06.568-.14 1.133-.08.565-.07.565-.08.565-.32 2.253-.1.562-.08.56-.27 1.68-.1.56-.1.558-.4 2.228-.1.555-.1.555-.55 2.766-.24 1.102-.1.55-.13.55-.24 1.097-.13.548-.12.546-.13.547-.13.545-.14.545-.13.545-.14.543-.13.543-.28 1.085-.14.54-.15.54-.14.54-.3 1.078-.45 1.61-.32 1.07-.15.534-.16.534-.17.533-.32 1.064-.68 2.12-.34 1.056-.36 1.053-.54 1.573-.18.523-.2.523-.18.52-.2.52-.38 1.04-.2.518-.2.518-.2.517-.2.517-.6 1.544-.2.514-.2.512-.42 1.023-.42 1.02-.2.51-.2.507-.22.508-.66 1.516-.22.504-.44 1.006-.7 1.502-.7 1.495-.24.497-.23.495-.48 1-.48.985-.25.492-.24.49-.75 1.467-.25.488-.5.972-.26.485-.25.484-.78 1.446-.26.48-.27.48-.26.478-.54.955-.26.476-.28.475-.27.475-.27.473-.28.472-.27.472-.28.47-.84 1.406-.28.467-.3.466-.28.466-.3.464-.3.463-.58.924-.3.46-.3.46-.3.46-.3.457-.3.457-.6.91-.3.454-.6.904-.3.45-.62.9-.3.448-.3.447-.32.446-.3.445-.32.444-.3.443-.64.884-.64.88-.32.438-.33.437-.32.437-.66.87-.33.433-.33.432-.33.43-.33.43-.34.43-.33.428-.34.427-.34.426-.33.425-.34.424-.35.423-.34.422-.34.42-.35.42-.34.42-.7.834-.7.83-.36.413-.35.412-.36.41-.35.41-.72.817-.72.812-.36.405-.36.403-.37.403-.37.4-.36.4-.74.797-.37.397-.37.396-.38.394-.37.394-.38.393-.37.39-.38.4-.38.39-.76.775-.38.386-.4.384-.38.384-.4.382-.38.38-.4.38-.4.38-.4.378-.78.752-.4.374-.4.373-.4.372-.4.37-.4.37-.4.368-.4.367-.4.366-.4.365-.4.363-.4.363-.4.36-.4.36-.4.36-.4.357-.42.357-.4.355-.4.354-.4.352-.42.352-.4.35-.42.35-.4.348-.42.347-.42.345-.42.344-.43.343-.42.342-.42.34-.43.34-.42.338-.43.337-.86.67-.86.665-.43.33-.43.33-.44.328-.43.327-.44.325-.44.324-.44.323-.43.32-.44.32-.45.32-.44.318-.44.316-.44.315-.45.314-.45.312-.44.31-.45.3-.45.308-.45.307-.45.306-.45.304-.46.303-.9.603-.46.3-.46.298-.46.296-.45.295-.46.294-.46.292-.47.292-.92.578-.47.287-.46.285-.47.285-.46.283-.47.28-.47.28-.47.28-.47.278-.47.276-.47.274-.48.274-.47.27-.48.27-.47.27-.48.268-.96.53-.48.264-.48.262-.96.52-.48.257-.5.257-.48.255-.5.254-.5.252-.48.25-.5.25-.5.248-.5.246-.5.245-.5.244-.5.242-.98.48-.5.237-.5.237-1 .468-.5.232-.5.23-.5.23-.5.227-.5.226-.5.225-.5.223-.5.22-.5.22-.5.218-.5.217-.5.216-.5.214-1.02.423-.5.2-.5.208-.5.207-.5.205-.52.203-.5.202-.5.2-1.04.396-.5.196-1.04.387-1.04.38-.52.188-.52.186-.52.185-.53.184-.52.182-.53.18-.52.18-.53.177-.52.176-.53.174-.53.173-.53.17-.53.17-.53.168-.53.166-1.06.327-.54.162-.53.16-.53.158-.54.156-.53.156-.54.153-.54.152-.54.15-.54.148-.53.147-.54.146-.54.143-.55.142-.54.14-.54.14-.54.137-.55.135-.54.134-.55.132-.54.13-1.1.256-.55.126-.55.124-.55.122-.55.12-.55.12-.55.117-.55.116-.55.114-1.1.222-.55.11-.56.108-.55.105-1.1.206-.56.1-1.1.195-.56.096-.56.093-.56.092-.56.09-.56.088-.56.087-1.13.168-.56.082-.56.08-1.13.154-1.13.148-.57.07-1.13.137-.57.066-.57.064-.57.062-.57.06-.57.06-.57.057-.57.055-.57.054-.57.052-.58.05-.57.048-.57.046-.58.045-.57.043-.58.04-.57.04-.58.038-.57.035-.58.034-.58.032-.58.03-.58.03-.57.027-.58.024-.58.023-.58.022-.58.02-1.17.033-.58.014-.58.012-.6.01-.58.008-.58.007-.6.004-.58.003h-.6-.58l-.6-.003-.58-.004-.6-.007-.58-.008-.58-.01-.58-.012-.6-.014-.58-.016-.58-.017-.58-.02-.58-.022-.58-.023-.58-.024-.58-.027-.58-.03-.57-.03-.58-.032-.58-.034-.57-.035-.58-.038-.58-.04-.57-.04-.58-.043-.57-.045-.57-.046-.58-.048-.57-.05-.57-.052-.57-.054-.57-.055-.57-.057-.58-.06-1.13-.123-.57-.064-.57-.066-.57-.068-.56-.07-.57-.07-.56-.073-.57-.075-.56-.076-.57-.078-.56-.08-.57-.082-.56-.083-.56-.085-1.12-.175-.56-.09-.56-.092-.56-.093-.56-.096-.56-.097-.55-.098-.56-.1-.56-.102-1.1-.21-.55-.108-.55-.11-.56-.1-.55-.112-.55-.114-.55-.116-.55-.117-.55-.12-.55-.12-.55-.122-.55-.124-.55-.126-1.1-.256-.55-.13-1.1-.266-.54-.135-.54-.137-.55-.14-.54-.14-1.08-.285-.54-.146-.54-.147-.54-.148-.53-.15-.54-.152-.54-.153-.53-.156-.54-.156-.53-.158-.54-.16-.53-.162-1.6-.493-.52-.168-.53-.17-.53-.17-.53-.173-.53-.174-.53-.176-.52-.177-.53-.18-.52-.18-.52-.182-.53-.184-.52-.185-.52-.186-.52-.188-.52-.2-.52-.19-.52-.193-.52-.194-.52-.196-.5-.198-.52-.198-.5-.2-.52-.202-.5-.203-.5-.205-.5-.207-.52-.208-.5-.2-.5-.21-.5-.212-.5-.214-.5-.216-.5-.217-.5-.218-.5-.22-.5-.22-.5-.223-.5-.225-.5-.226-.5-.227-.5-.23-.5-.23-.5-.232-1-.468-.5-.237-.5-.237-.5-.24-.5-.24-.5-.242-.5-.244-.5-.245-.5-.246-.5-.248-.98-.5-.48-.252-.98-.51-.96-.514-.48-.26-.5-.26-.48-.262-.48-.264-.47-.265-.48-.266-.48-.268-.47-.27-.96-.542-.94-.548-.47-.276-.94-.557-.94-.56-.47-.283-.46-.285-.47-.285-.46-.287-.46-.29-.47-.29-.92-.584-.46-.294-.46-.295-.45-.296-.46-.298-.46-.3-.45-.3-.46-.302-.45-.303-.45-.304-.9-.613-.45-.308-.9-.62-.44-.312-.45-.314-.88-.63-.45-.318-.88-.64-.44-.32-.44-.323-.43-.324-.44-.325-.43-.327-.44-.328-.86-.66-.43-.332-.43-.333-.43-.334-.43-.335-.43-.337-.43-.338-.42-.34-.42-.34-.43-.342-.42-.343-.84-.69-.42-.347-.4-.348-.84-.7-.82-.704-.42-.354-.4-.355-.82-.714-.4-.36-.4-.36-.4-.36-.4-.363-.4-.363-.4-.365-.4-.366-.8-.735-.4-.37-.4-.37-.4-.372-.4-.373-.4-.374-1.17-1.13-.78-.76-.4-.38-.38-.382-.4-.384-.38-.384-.76-.773-.38-.388-.76-.78-.38-.39-.37-.393-.38-.394-.37-.394-.74-.793-.37-.398-.37-.4-.37-.4-.36-.4-.37-.403-.36-.403-.72-.81-.37-.406-.35-.408-.36-.41-.36-.41-.35-.41-.36-.412-.35-.413-1.05-1.247-.35-.417-.34-.42-.35-.42-.34-.42-.35-.422-.34-.423-.34-.424-.34-.425-.34-.426-.33-.427-.34-.428-.66-.86-.34-.43-.66-.865-.32-.434-.33-.435-.33-.437-.32-.437-.32-.438-.32-.44-.32-.44-.96-1.327-.3-.444-.32-.445-.62-.893-.3-.448-.3-.45-.3-.45-.3-.45-.3-.452-.3-.452-.3-.454-.3-.455-.3-.456-.3-.457-.3-.457-.3-.46-.3-.46-.3-.46-.3-.462-.28-.462-.58-.927-.3-.466-.28-.466-.28-.467-.28-.468-.56-.938-.56-.943-.27-.472-.28-.473-.54-.95-.27-.476-.26-.477-.54-.956-.78-1.442-.78-1.45-.25-.485-.25-.486-.26-.486-.5-.976-.24-.49-.25-.5-.25-.49-.48-.984-.24-.493-.72-1.485-.46-.995-.24-.498-.23-.5-.23-.5-.22-.5-.23-.5-.22-.503-.23-.503-.66-1.514-.2-.506-.22-.508-.42-1.016-.22-.5-.2-.5-.2-.51-.42-1.024-.8-2.058-.2-.517-.2-.517-.2-.518-.57-1.558-.38-1.042-.36-1.046-.2-.524-.18-.524-.18-.525-.17-.526-.18-.527-.17-.528-.18-.528-.34-1.058-.16-.53-.17-.53-.16-.532-.17-.532-.48-1.6-.15-.535-.16-.536-.75-2.69-.14-.54-.15-.54-.42-1.626-.14-.543-.13-.543-.14-.545-.4-1.637-.12-.546-.13-.548-.12-.548-.13-.55-.24-1.1-.1-.55-.12-.55-.1-.552-.12-.553-.1-.553-.1-.554-.22-1.11-.5-2.783-.1-.558-.45-2.8-.16-1.124-.1-.563-.08-.564-.07-.564-.16-1.13-.28-2.266-.06-.568-.07-.568-.24-2.28-.05-.57-.06-.57-.1-1.145-.04-.573-.1-1.148-.16-2.3-.03-.576-.04-.577-.1-1.734-.02-.58-.03-.58-.08-2.322-.01-.582-.02-.582-.04-2.333v-3.51l.04-2.333.02-.582.01-.58.08-2.322.03-.58.02-.58.1-1.734.04-.577.03-.576.16-2.3.1-1.148.04-.573.1-1.144.06-.572.05-.57.24-2.28.07-.568.06-.568.28-2.266.16-1.13.07-.564.08-.563.1-.563.16-1.125.36-2.24.1-.56.2-1.117.4-2.225.22-1.11.1-.554.1-.553.12-.553.1-.55.12-.552.1-.55.24-1.1.13-.55.12-.548.13-.547.12-.547.4-1.637.14-.544.13-.544.56-2.17.15-.54.14-.54.75-2.69.16-.535.15-.536.48-1.6.17-.532.16-.532.17-.53.16-.53.34-1.058.18-.528.17-.528.18-.526.17-.526.18-.526.18-.524.2-.524.36-1.045.2-.522.38-1.04.38-1.038.2-.518.2-.517.8-2.06.2-.513.42-1.025.2-.51.2-.5.22-.5.42-1.016.22-.507.2-.507.66-1.514.23-.503.22-.503.23-.5.22-.5.23-.5.23-.5.24-.498.23-.498.23-.496.48-.99.48-.988.48-.984.25-.49.25-.5.24-.49.5-.975.26-.487.25-.486.25-.485.26-.484.52-.965.78-1.44.27-.48.27-.478.26-.477.27-.476.27-.475.27-.474.28-.474.27-.472.56-.943.56-.938.28-.468.28-.467.28-.466.87-1.393.28-.462.3-.462.3-.46.3-.46.3-.458.3-.458.3-.457.3-.456.6-.908.3-.453.3-.452.3-.45.3-.45.3-.45.93-1.342.32-.445.3-.444.64-.885.64-.882.32-.44.32-.438.32-.437.66-.872.32-.434.33-.433.33-.432.34-.43.66-.86.34-.428.33-.427.68-.85.34-.424.34-.423.35-.422.34-.42.35-.42.34-.42.7-.834.7-.83.35-.413.36-.412.35-.41.72-.82.35-.408.37-.407.72-.81.36-.403.37-.403.36-.4 1.1-1.198.37-.397.74-.8.38-.394.37-.392.38-.392.76-.78.38-.388.38-.387.38-.386.38-.384.4-.384.38-.382.4-.38.78-.76 1.17-1.13.4-.374.4-.373.4-.372.4-.37.8-.738.8-.733.4-.365.4-.363.4-.363.4-.36.4-.36.82-.716.82-.712.42-.353.4-.353.4-.352.42-.35.42-.35.4-.348.84-.692.84-.687.43-.342.42-.34.42-.34.43-.338.43-.337.43-.335.86-.667.43-.332.43-.33.43-.33.44-.328.43-.327.44-.325.43-.324.44-.323.88-.64.44-.32.45-.317.44-.317.44-.315.45-.313.44-.313.45-.31.9-.618.45-.307.45-.306.45-.304.45-.303.46-.302.45-.3.46-.3.46-.297.45-.297.46-.295.46-.294.46-.292.46-.29.47-.3.92-.576.47-.285.46-.284.47-.283.47-.282.47-.28.47-.28.47-.277.47-.276.47-.275.47-.273.48-.272.48-.27.47-.27.48-.268.48-.266.47-.265.48-.263.48-.262.5-.26.48-.26.48-.258.48-.257.5-.255.5-.253.48-.253.98-.5.98-.494.5-.245.98-.485.5-.24.5-.24.5-.238.5-.236.5-.235.5-.233.5-.232.5-.23.5-.23.5-.227.5-.226.5-.225.5-.223.5-.22.5-.22.5-.22.5-.217.5-.216.5-.214.5-.212.5-.21.5-.2.52-.208.5-.206.5-.205.5-.204.52-.202.5-.2.52-.2.5-.198 1.04-.4.52-.193.52-.19 1.04-.378.52-.186.52-.185.53-.184.52-.182.52-.18.53-.18.52-.177.53-.176.53-.174.53-.172.53-.17.53-.17.52-.167 1.07-.33 1.06-.325.54-.16.53-.16.54-.156.53-.155.54-.154.54-.15.53-.15.54-.148.54-.147.54-.145.54-.144.54-.142.54-.14.55-.138.54-.138.54-.135 1.1-.266.55-.13.55-.13.54-.127.55-.126.55-.124.55-.122.55-.12.55-.12.55-.117.55-.115 1.1-.227.56-.1.55-.11.55-.107 1.1-.2.56-.102 1.1-.2.56-.097.56-.096.56-.093.56-.092.56-.1.56-.09.56-.087.56-.085.56-.083.57-.082.56-.08 1.13-.155.57-.075.56-.072.57-.072.56-.07.57-.068.57-.066.57-.064 1.13-.123 1.15-.116.57-.055.57-.054.57-.05.57-.05.58-.05.57-.046.57-.045.58-.043.57-.04.58-.04.58-.037.57-.036.58-.034.58-.032.57-.03.58-.03.58-.026.58-.025.58-.023.58-.02.58-.02.58-.017.58-.016.6-.014.58-.012.58-.01.58-.008.6-.007.58-.004.6-.003.58-.001.6.001zm-.93 75l-.35.001-.35.003-.35.004-.34.005-.34.006-.35.007-.34.008-.7.02-.34.01-.34.013-.35.013-.34.015-.34.016-.35.017-.33.017-.35.02-.34.02-.68.043-.67.047-.34.026-.67.053-.68.058-.33.03-.34.032-.33.032-.34.034-.33.034-.34.036-.33.036-.66.076-.34.04-.66.082-.33.043-.33.044-.34.045-.32.045-.33.047-.34.048-.32.048-.33.05-.33.05-.32.05-.33.053-.33.054-.32.055-.33.055-.33.057-.32.057-.32.06-.33.06-.33.06-.32.06-.32.063-.33.063-.3.064-.33.066-.64.134-.32.068-.32.07-.32.07-.64.144-.32.073-.32.074-.64.152-.32.078-.3.076-.32.08-.3.08-.32.08-.32.083-.3.08-.32.085-.3.084-.63.173-.3.087-.3.088-.3.09-.3.1-.32.092-.3.093-.3.092-.62.188-.93.29-.3.098-.3.1-.3.1-.3.1-.3.103-.3.104-.3.105-.3.104-.3.106-.3.106-.3.108-.6.218-.3.11-.3.113-.3.11-.3.112-.3.115-.3.115-.3.116-.3.118-.3.117-.3.118-.3.12-.3.122-.3.12-.6.244-.3.126-.3.123-.3.126-.3.128-.3.126-.3.128-.3.13-.3.128-.3.13-.3.135-.3.134-.28.13-.3.135-.3.138-.3.134-.3.136-.3.138-.58.282-.28.14-.3.14-.3.143-.3.145-.28.144-.3.143-.28.146-.3.148-.28.145-.28.146-.3.153-.3.15-.27.148-.3.153-.28.154-.56.304-.28.156-.28.158-.28.154-.28.158-.28.16-.27.157-.56.322-.27.16-.28.163-.28.165-.27.164-.27.163-.28.165-.27.17-.28.168-.26.166-.27.17-.28.17-.27.172-.54.342-.54.346-.26.174-.27.175-.27.182-.27.176-.26.173-.27.182-.26.18-.26.18-.27.182-.26.18-.26.185-.27.183-.52.368-.52.376-.26.184-.26.19-.25.186-.26.19-.26.194-.25.19-.26.2-.25.194-.26.197-.25.19-.25.193-.26.2-.26.2-.24.194-.25.198-.26.2-.24.196-.25.2-.25.2-.25.204-.25.202-.25.205-.24.202-.5.41-.25.208-.24.2-.24.2-.25.21-.24.2-.24.207-.24.21-.24.214-.24.212-.24.213-.24.21-.23.214-.25.22-.23.215-.23.2-.24.217-.23.222-.24.218-.23.214-.46.444-.23.22-.23.22-.24.227-.23.22-.22.22-.23.226-.23.223-.22.226-.23.23-.23.227-.22.226-.22.228-.23.23-.22.234-.22.226-.22.23-.22.234-.22.227-.22.238-.22.236-.22.23-.22.238-.2.23-.2.233-.43.48-.22.236-.2.24-.2.237-.42.48-.2.244-.2.24-.2.244-.2.243-.2.242-.2.246-.2.247-.2.246-.2.24-.2.247-.2.25-.2.25-.2.25-.4.494-.2.255-.2.253-.2.247-.2.252-.2.258-.38.502-.2.26-.2.255-.18.25-.2.256-.2.262-.2.257-.2.258-.18.26-.2.254-.2.26-.18.262-.2.258-.18.264-.2.264-.18.258-.18.265-.18.263-.18.26-.18.268-.18.27-.18.264-.35.532-.18.272-.17.26-.17.268-.18.275-.17.264-.17.272-.17.27-.17.272-.17.274-.17.266-.17.275-.16.276-.17.27-.16.27-.16.276-.34.56-.16.27-.32.552-.15.275-.17.284-.15.277-.15.272-.16.28-.16.287-.15.28-.16.282-.15.28-.15.278-.15.283-.15.284-.15.288-.15.28-.14.28-.15.295-.15.282-.14.284-.15.3-.14.284-.14.286-.14.285-.14.292-.14.288-.14.3-.14.294-.14.283-.13.29-.14.29-.13.293-.14.292-.13.293-.13.295-.13.29-.13.294-.13.297-.26.582-.13.3-.12.3-.12.293-.13.295-.12.303-.12.295-.13.295-.12.305-.12.298-.1.292-.12.3-.12.307-.12.3-.1.294-.1.303-.12.303-.1.304-.1.305-.1.297-.22.614-.1.3-.1.3-.1.31-.1.303-.1.3-.1.312-.1.313-.1.305-.1.3-.1.314-.1.308-.1.3-.1.317-.1.3-.1.303-.1.32-.1.312-.1.306-.1.314-.1.306-.18.63-.1.3-.08.317-.1.3-.08.31-.1.32-.08.312-.08.313-.08.323-.16.63-.16.634-.07.318-.08.32-.07.32-.07.313-.08.32-.07.32-.07.322-.07.324-.06.316-.14.65-.06.32-.07.32-.06.32-.06.33-.07.322-.06.322-.06.33-.06.323-.05.324-.12.65-.05.327-.05.328-.06.327-.05.33-.05.33-.05.323-.05.322-.05.34-.04.333-.05.318-.04.333-.05.335-.04.328-.04.337-.08.66-.04.34-.04.33-.03.324-.04.34-.03.334-.04.334-.18 2.016-.02.34-.03.34-.02.334-.03.342-.08 1.36-.01.338-.04.68-.01.348-.02.34-.01.334-.01.35-.03 1.032v.346l-.02.686v2.78l.01.34.01.347v.346l.05 1.717.02.34.01.35.04.678.01.338.04.7.04.67.03.343.02.333.03.34.02.34.03.33.03.346.03.33.1 1.008.04.334.03.334.04.34.03.324.04.332.04.338.04.33.04.33.04.336.04.328.05.334.04.335.05.318.04.332.05.34.1.645.1.66.06.328.05.328.05.326.12.65.05.326.06.323.06.33.06.32.07.322.06.328.06.32.07.32.06.318.14.65.06.316.14.646.08.322.07.32.07.312.07.32.08.318.07.318.16.634.08.316.08.314.08.322.16.628.1.318.08.31.1.31.1.32.08.31.18.63.1.307.1.315.1.305.1.312.1.32.1.303.1.31.1.317.1.3.1.308.1.314.1.3.1.304.1.313.1.31.1.303.1.303.1.31.1.3.1.302.1.307.1.303.1.3.1.306.1.304.12.302.1.303.1.294.12.3.12.307.12.3.1.29.12.298.12.305.13.295.12.295.12.303.13.295.12.293.12.3.13.3.26.582.13.297.13.294.13.29.13.295.13.293.14.292.13.292.14.292.13.29.14.283.14.296.14.288.14.286.14.294.14.287.14.283.14.285.15.292.14.283.15.282.15.294.14.28.15.28.3.572.15.285.15.274.15.284.16.283.15.28.16.286.16.28.15.273.15.276.17.282.15.277.32.552.16.273.17.28.16.278.17.278.16.273.17.268.16.274.17.277.17.268.17.27.17.273.17.272.17.27.17.264.18.273.17.27.17.262.18.27.18.272.17.26.18.265.36.536.36.522.18.268.18.26.2.263.18.263.2.258.18.263.2.26.2.254.18.26.2.258.2.257.2.263.2.256.18.25.2.255.2.26.2.252.2.25.2.257.2.25.2.25.2.255.2.253.2.248.2.244.2.25.2.25.2.25.2.25.2.24.2.246.2.247.2.244.2.244.2.245.42.48.2.248.42.476.2.24.22.243.2.236.2.233.22.246.2.234.2.23.22.237.22.232.22.233.22.24.22.23.44.462.22.226.22.234.23.23.22.228.22.226.23.227.23.23.22.224.23.225.23.226.22.222.23.223.23.222.24.223.23.22.46.44.23.217.24.22.23.217.24.217.23.214.24.215.24.22.23.213.72.636.24.215.48.416.24.21.25.2.24.21.24.2.25.208.25.21.24.2.24.203.25.204.5.406.25.2.25.2.24.196.26.202.25.198.24.194.26.2.26.197.25.195.25.19.26.195.25.194.26.2.25.2.26.19.26.193.26.188.25.185.26.186.26.2.26.186.26.185.26.183.27.184.26.182.53.365.26.18.26.178.27.18.26.176.27.177.27.18.27.174.26.175.27.175.27.17.27.173.27.172.54.34.28.17.27.168.27.167.27.168.28.165.27.163.55.33.55.322.56.322.27.158.28.158.28.16.28.156.28.155.28.157.28.154.28.15.28.154.3.153.27.148.3.15.28.152.3.15.56.3.3.147.3.145.28.143.3.145.58.282.28.14.58.278.3.14.3.138.57.27.3.135.3.133.3.134.58.262.6.262.58.252.3.128.3.126.3.124.3.125.3.123.3.12.3.122.3.12.3.12.3.118.6.234.3.116.3.115.3.115.3.113.3.1.3.113.3.11.3.1.3.108.3.108.3.107.3.106.3.104.62.208.3.102.3.102.6.2.3.098.3.1.3.097.3.096.3.093.3.095.3.094.3.09.32.092.3.1.3.09.3.088.3.087.32.087.3.086.3.084.32.085.32.083.3.08.32.08.3.08.32.08.32.078.3.076.32.077.32.075.32.074.32.073.32.072.3.07.65.14.64.136.32.067.33.065.3.064.33.064.64.124.33.06.33.06.32.06.32.057.33.057.65.1.65.106.33.052.33.05.33.05.33.05.33.048.65.09.67.09.33.043.66.082.33.04.34.038.33.038.33.036.34.036.33.034.67.067.67.06.34.03.67.055.34.027.34.025.34.024.34.023.33.022.34.02.35.02.34.02.33.018.35.017.68.03.68.026.35.01.34.01.35.01.34.008.34.007.35.006.35.005.34.004.35.003h.35.7.35l.35-.003.34-.004.35-.005.34-.006.34-.007.35-.008.34-.01.35-.01.34-.01.35-.013.34-.013.68-.03.34-.017.34-.018.34-.02.34-.02.34-.02.34-.022.34-.023.34-.024.33-.025.68-.054.34-.028.33-.03.34-.03.33-.03.34-.033.33-.034.34-.034.66-.072.34-.038 1-.12.33-.04.33-.043.33-.044.66-.1.33-.046.33-.048.33-.05.32-.05.34-.05.32-.052.33-.052.33-.054.32-.054.33-.056.32-.057.33-.057.32-.06.33-.06.32-.06.33-.062.32-.062.64-.128.65-.132.64-.136.32-.07.64-.142.32-.072.32-.073.32-.074.32-.075.3-.077.32-.076.32-.078.32-.08.3-.08.32-.08.63-.165.3-.083.32-.085.3-.086.32-.087.3-.087.3-.088.3-.09.3-.1.32-.092.3-.09.3-.094.3-.095.3-.093.3-.096.3-.097.3-.1.3-.098.3-.098.3-.1.3-.102.3-.102.62-.208.3-.104.3-.106.3-.107.3-.108.3-.108.3-.1.3-.11.3-.113.3-.1.3-.113.6-.23.3-.116.3-.117.3-.117.3-.118.3-.12.3-.12.3-.122.3-.12.3-.123.3-.125.3-.124.3-.126.3-.128.58-.252.3-.13.3-.13.3-.13.3-.13.3-.134.3-.133.3-.134.3-.138.28-.133.3-.137.3-.14.3-.14.28-.14.87-.423.3-.145.28-.143.28-.145.3-.147.85-.44.3-.152.28-.15.28-.148.28-.15.3-.156.56-.304.28-.157.28-.155.27-.156.3-.16.28-.158.27-.158.28-.16.28-.163.27-.16.28-.162.27-.166.28-.164.27-.165.27-.163.28-.168.27-.167.27-.168.27-.17.28-.17.27-.17.27-.172.27-.173.26-.17.54-.35.27-.174.27-.18.26-.177.27-.176.26-.18.26-.178.27-.18.53-.365.26-.182.26-.184.26-.183.26-.185.26-.186.27-.2.26-.186.25-.185.26-.188.26-.193.26-.19.25-.2.26-.2.25-.194.26-.195.25-.19.25-.195.26-.197.25-.196.25-.197.26-.202.25-.198.24-.196.25-.2.25-.2.5-.406.25-.204.24-.203.24-.2.25-.21.25-.208.24-.2.24-.21.25-.2.23-.206.25-.21.24-.212.24-.21.48-.424.23-.212.24-.213.24-.22.24-.215.23-.214.24-.217.23-.217.23-.22.24-.217.46-.44.23-.22.23-.223.23-.222.23-.223.23-.222.23-.226.22-.225.23-.224.23-.23.22-.227.23-.226.22-.228.22-.23.23-.234.22-.226.44-.462.2-.23.23-.24.22-.233.2-.232.22-.233.2-.235.22-.24.22-.24.2-.233.2-.236.22-.243.2-.24.42-.476.2-.248.42-.48.2-.245.42-.488.2-.247.2-.246.2-.24.2-.25.2-.25.2-.25.2-.25.2-.244.2-.248.2-.253.2-.255.2-.25.2-.25.2-.257.2-.25.2-.252.2-.26.2-.255.2-.25.2-.256.2-.263.2-.257.2-.258.2-.26.2-.254.18-.26.2-.263.18-.258.2-.263.18-.263.18-.26.2-.268.36-.522.18-.268.17-.262.2-.27.17-.266.18-.266.18-.27.17-.262.17-.27.17-.267.18-.27.17-.276.17-.266.17-.273.17-.27.16-.268.17-.277.17-.274.16-.268.17-.273.16-.278.17-.278.16-.28.16-.273.32-.552.16-.277.16-.276.16-.282.16-.28.15-.275.16-.286.15-.28.15-.283.16-.284.15-.274.15-.285.15-.286.15-.28.14-.287.3-.573.15-.282.14-.283.14-.292.15-.285.14-.283.14-.287.14-.294.14-.286.14-.288.14-.296.13-.283.14-.29.14-.292.13-.292.14-.292.13-.293.13-.295.13-.29.13-.294.13-.297.13-.29.12-.29.26-.598.12-.293.12-.295.13-.303.24-.6.12-.305.12-.298.12-.29.12-.3.12-.307.1-.3.12-.294.1-.303.1-.302.12-.304.1-.306.1-.3.1-.303.1-.307.1-.302.1-.3.1-.31.2-.606.1-.31.1-.313.1-.304.1-.3.1-.314.1-.308.1-.3.1-.317.1-.31.1-.303.1-.32.1-.312.1-.305.1-.315.1-.307.18-.63.08-.31.1-.31.1-.32.08-.32.08-.3.1-.314.08-.314.08-.322.08-.314.16-.633.07-.317.08-.318.07-.318.08-.32.07-.312.07-.32.07-.322.08-.323.06-.323.07-.316.14-.65.06-.318.07-.32.06-.32.06-.328.06-.322.06-.32.06-.33.06-.323.12-.65.05-.325.06-.326.1-.656.06-.33.05-.322.05-.33.04-.33.1-.664.04-.318.05-.335.04-.334.04-.328.05-.336.08-.66.04-.338.03-.332.04-.324.04-.34.06-.668.04-.336.03-.335.03-.337.03-.33.03-.346.02-.33.03-.34.02-.34.03-.333.02-.343.02-.334.03-.336.02-.345.01-.345.04-.677.01-.34.02-.35.02-.675.02-.35.02-.688v-.345l.01-.338.01-.355v-.347l.01-.34v-2.083l-.01-.34v-.347l-.01-.355-.01-.338v-.344l-.02-.688-.02-.35-.01-.334-.01-.34-.02-.348-.01-.34-.04-.677-.01-.345-.02-.345-.03-.335-.04-.677-.03-.334-.02-.34-.03-.34-.02-.33-.03-.347-.06-.666-.03-.336-.04-.336-.06-.668-.04-.34-.04-.324-.03-.33-.04-.34-.04-.33-.04-.328-.05-.337-.04-.328-.04-.335-.05-.333-.04-.318-.1-.665-.04-.33-.05-.33-.05-.322-.06-.33-.05-.327-.05-.328-.06-.327-.05-.326-.06-.325-.12-.647-.06-.33-.12-.644-.06-.33-.06-.32-.07-.32-.06-.32-.14-.65-.07-.316-.06-.324-.08-.322-.14-.642-.07-.313-.08-.32-.07-.32-.08-.318-.07-.317-.08-.317-.16-.63-.08-.323-.08-.313-.1-.312-.08-.313-.08-.32-.1-.318-.1-.31-.08-.3-.1-.316-.1-.315-.1-.306-.1-.314-.1-.306-.1-.312-.1-.32-.1-.303-.1-.3-.1-.317-.1-.3-.1-.308-.1-.314-.1-.3-.1-.305-.1-.313-.1-.312-.1-.3-.1-.303-.1-.31-.1-.3-.1-.3-.22-.614-.1-.297-.1-.305-.12-.304-.22-.606-.12-.294-.1-.3-.12-.307-.12-.3-.12-.292-.12-.298-.12-.305-.24-.6-.13-.303-.12-.295-.12-.293-.26-.598-.12-.29-.13-.29-.13-.297-.13-.294-.13-.29-.13-.295-.13-.293-.14-.292-.13-.293-.28-.582-.13-.283-.14-.294-.14-.3-.14-.288-.14-.292-.28-.57-.15-.284-.14-.3-.14-.284-.15-.282-.15-.288-.15-.286-.14-.287-.15-.28-.3-.567-.15-.278-.16-.28-.15-.282-.15-.28-.16-.287-.15-.274-.16-.28-.16-.283-.16-.278-.16-.275-.32-.552-.16-.27-.16-.28-.17-.28-.16-.276-.17-.27-.16-.27-.17-.276-.17-.275-.16-.266-.17-.274-.17-.272-.17-.264-.17-.278-.18-.27-.17-.27-.17-.268-.17-.26-.18-.272-.18-.27-.17-.263-.18-.27-.18-.265-.18-.268-.18-.26-.18-.263-.2-.265-.18-.258-.18-.264-.2-.264-.18-.258-.2-.262-.18-.26-.2-.254-.2-.26-.38-.515-.2-.262-.2-.256-.2-.25-.2-.255-.2-.26-.38-.502-.2-.258-.2-.252-.2-.247-.2-.253-.2-.255-.4-.494-.2-.25-.2-.25-.2-.25-.2-.247-.2-.24-.2-.246-.2-.247-.2-.246-.2-.242-.2-.243-.2-.244-.2-.24-.2-.244-.42-.48-.2-.237-.22-.24-.2-.236-.2-.235-.22-.24-.22-.238-.2-.236-.22-.233-.2-.23-.22-.236-.23-.238-.2-.227-.22-.234-.22-.23-.22-.226-.23-.234-.22-.23-.22-.228-.23-.226-.22-.227-.23-.23-.23-.226-.22-.223-.23-.226-.23-.22-.22-.22-.24-.227-.23-.22-.23-.22-.23-.222-.24-.222-.23-.214-.23-.218-.24-.222-.23-.217-.23-.2-.24-.215-.24-.22-.24-.214-.23-.21-.24-.213-.24-.212-.24-.21-.24-.212-.25-.21-.23-.206-.25-.21-.24-.2-.24-.2-.25-.208-.25-.2-.24-.2-.24-.202-.25-.205-.25-.202-.25-.204-.25-.2-.25-.2-.24-.196-.25-.198-.26-.2-.25-.198-.25-.196-.26-.2-.25-.193-.5-.386-.25-.194-.26-.2-.25-.19-.26-.194-.26-.19-.26-.186-.26-.19-.25-.184-.26-.188-.27-.188-.52-.368-.26-.183-.26-.185-.26-.18-.27-.182-.26-.18-.27-.18-.27-.182-.26-.173-.26-.176-.27-.182-.27-.175-.27-.174-.26-.173-.27-.173-.54-.342-.27-.172-.28-.17-.27-.17-.27-.166-.27-.168-.55-.332-.27-.165-.28-.166-.27-.163-.28-.16-.27-.162-.28-.163-.28-.16-.27-.157-.3-.16-.28-.158-.27-.154-.28-.158-.28-.156-.28-.15-.28-.154-.57-.307-.28-.148-.28-.15-.3-.153-.28-.146-.28-.145-.3-.148-.3-.146-.28-.143-.28-.144-.3-.145-.3-.143-.3-.14-.28-.14-.3-.14-.3-.14-.3-.138-.28-.135-.3-.135-.87-.403-.3-.134-.6-.265-.3-.128-.3-.13-.3-.128-.3-.126-.3-.128-.3-.126-.3-.123-.3-.126-.3-.124-.3-.12-.3-.12-.3-.122-.3-.12-.3-.118-.3-.117-.3-.118-.3-.116-.6-.23-.3-.112-.3-.11-.3-.113-.3-.11-.3-.11-.3-.11-.3-.108-.3-.106-.3-.106-.3-.104-.3-.105-.3-.104-.3-.103-.3-.1-.3-.1-.3-.1-.3-.098-.93-.29-.62-.188-.3-.092-.3-.093-.32-.092-.3-.1-.3-.09-.3-.088-.3-.087-.32-.088-.3-.085-.32-.085-.3-.083-.32-.082-.3-.083-.32-.08-.32-.08-.3-.08-.3-.076-.33-.078-.3-.076-.32-.076-.32-.074-.32-.073-.64-.144-.32-.07-.32-.07-.32-.068-.32-.067-.33-.067-.32-.066-.64-.128-.32-.062-.33-.06-.32-.06-.33-.06-.32-.06-.33-.057-.32-.057-.33-.055-.32-.055-.33-.054-.33-.053-.32-.05-.34-.05-.32-.05-.66-.096-.33-.047-.66-.1-.33-.044-.33-.043-.33-.04-.34-.04-.33-.04-.66-.076-.34-.036-.33-.036-.34-.034-.33-.034-.34-.032-.33-.032-.67-.06-.34-.03-.34-.027-.34-.026-.33-.026-.34-.024-.34-.023-.34-.022-.34-.02-.34-.02-.34-.02-.68-.034-.34-.016-.34-.015-.7-.026-.34-.01-.34-.01-.35-.01-.35-.008-.34-.007-.34-.006-.35-.005-.34-.004-.35-.003-.7-.002-.34.001z" fill="#231f20" fill-opacity=".1"/><g fill-rule="nonzero"><path d="M967.676 226.662L837.87 301.606c20.902 39.352 31.697 81.54 33.178 123.506h149.876c-1.535-67.437-18.792-135.424-53.248-198.45z" fill="#63d685"/><path d="M737.194 193.27c35.602 22.265 66.74 52.705 90.373 90.5l129.807-74.944c-37.354-61.352-87.606-110.294-145.24-145.342L737.194 193.27z" fill="#c0538c"/><path d="M812.094 807.295c61.358-37.352 110.29-87.604 145.342-145.24l-129.8-74.936c-22.265 35.602-52.705 66.74-90.484 90.374l74.942 129.803z" fill="#51b4d0"/><path d="M595.793 149.907c43.115 1.6 85.4 12.926 123.536 33.095l74.95-129.817A437.73 437.73 0 0 0 595.795.001l-.001 149.906z" fill="#ea7a6e"/></g><path d="M226.558 682.065c-6.39-9.32-12.467-18.955-18.21-28.905-118.535-205.31-50.886-467 150.542-589.62l74.938 129.8c-129.806 81.222-172.964 251.276-95.79 384.944s246.02 181.32 381.27 109.5l74.94 129.8c-148.77 81.35-325.22 66.85-456.7-24.04l-203.343 203.34c-30.62 30.62-80.34 30.62-110.962 0l-.277-.27c-30.62-30.63-30.62-80.35 0-110.97l203.592-203.588z" fill="#231f20"/><path d="M871.01 445.717c-1.602 43.112-12.926 85.4-33.104 123.537l129.82 74.948c33.206-60.93 51.474-129.108 53.186-198.48l-149.902-.004z" fill="#78b09e" fill-rule="nonzero"/><g transform="matrix(4.71018 0 0 4.71018 -4370.203 -5803.286)" fill="#231f20" fill-rule="nonzero"><path d="M1003.615 1458.84v-20.423h-4.348v12.83l-9.46-12.83h-4.47v20.423h4.348v-13.32l9.737 13.32h4.195zm16.322.367c6.216 0 9.216-3.5 9.216-8.543v-12.248h-4.44v12.125c0 2.848-1.623 4.807-4.777 4.807s-4.807-1.96-4.807-4.807v-12.125h-4.4v12.248c0 5.052 3 8.543 9.216 8.543zm38.453-.367v-20.423h-6.124l-4.96 12.768-4.96-12.768h-6.093v20.423h4.348v-14.728l5.756 14.728h1.898l5.756-14.728v14.728h4.38zm19.512-26.7h-3.582l-4.103 4.4h2.725l4.96-4.4zm2.05 26.7v-3.827h-10.104v-4.654h9.9v-3.827h-9.9v-4.287h10.104v-3.827H1065.5v20.423h14.452zm23.024 0l-4.624-7.777c2.205-.52 4.5-2.48 4.5-6.063 0-3.797-2.633-6.583-6.9-6.583h-9.553v20.423h4.348v-7.257h3.184l4 7.257h5.022zm-7.624-11.084h-4.593v-5.5h4.593c1.715 0 3.03 1.04 3.03 2.725 0 1.745-1.317 2.786-3.03 2.786zm23.515 11.45c6.154 0 10.656-4.4 10.656-10.564s-4.5-10.564-10.656-10.564c-6.185 0-10.686 4.4-10.686 10.564s4.5 10.564 10.686 10.564zm0-3.858c-3.797 0-6.216-2.9-6.216-6.706 0-3.827 2.42-6.706 6.216-6.706 3.766 0 6.185 2.878 6.185 6.706 0 3.797-2.42 6.706-6.185 6.706zm-133.142 16.097h9.02v29.784h-9.02z"/><use xlink:href="#B"/><path d="M1056.772 1501.766c7.814 0 11.788-4.733 13.53-8.707l-7.77-3.572c-.76 2.322-3.08 4.33-5.76 4.33-4.33 0-7.234-3.304-7.234-7.457s2.902-7.457 7.234-7.457c2.68 0 5 2 5.76 4.33l7.77-3.617c-1.786-4.108-5.716-8.663-13.53-8.663-9.333 0-16.388 6.207-16.388 15.405 0 9.154 7.055 15.405 16.388 15.405zm35.5 0c9.2 0 16.298-6.25 16.298-15.405s-7.1-15.405-16.298-15.405-16.298 6.25-16.298 15.405 7.1 15.405 16.298 15.405zm0-7.948c-4.33 0-7.145-3.304-7.145-7.457s2.813-7.457 7.145-7.457 7.145 3.304 7.145 7.457-2.813 7.457-7.145 7.457z"/><use xlink:href="#B" x="112.22"/><use xlink:href="#B" x="150.17"/><path d="M1206.897 1501.766c10.047 0 14.69-5.403 14.69-12.815v-17.504h-9.154v17.236c0 2.858-1.875 5.135-5.537 5.135-3.706 0-5.582-2.277-5.582-5.135v-17.236h-9.154v17.55c0 7.368 4.69 12.77 14.736 12.77z"/></g><defs ><path id="B" d="M1032.7 1501.23v-29.784h-9.02v14.1l-10.36-14.1h-9.288v29.784h9.02v-15.093l10.985 15.093h8.663z"/></defs></svg>