<?xml version="1.0" encoding="utf-8"?>
<!-- Generator: Adobe Illustrator 22.1.0, SVG Export Plug-In . SVG Version: 6.00 Build 0)  -->
<svg version="1.1" id="Calque_1" xmlns="http://www.w3.org/2000/svg" xmlns:xlink="http://www.w3.org/1999/xlink" x="0px" y="0px"
	 viewBox="0 0 70 70" style="enable-background:new 0 0 70 70;" xml:space="preserve">
<style type="text/css">
	.st0{clip-path:url(#SVGID_2_);fill:#0097D6;}
	.st1{clip-path:url(#SVGID_2_);fill:#FFFFFF;}
	.st2{clip-path:url(#SVGID_4_);fill:#39A8E5;}
	.st3{clip-path:url(#SVGID_4_);fill:#164194;}
</style>
<g>
	<defs>
		<rect id="SVGID_3_" x="-7.4" y="-5.5" width="93.4" height="81.2"/>
	</defs>
	<clipPath id="SVGID_2_">
		<use xlink:href="#SVGID_3_"  style="overflow:visible;"/>
	</clipPath>
	<path style="clip-path:url(#SVGID_2_);fill:#39A8E5;" d="M15.8,12l14.8,6.7h22.7l1.9-3.3c1.1-2-0.2-4.3-2.3-4.3h-37
		C15.4,11.2,15.3,11.8,15.8,12 M16.8,41.3L36.2,41c2.4,0,5.1-1.4,6.4-3.6l2.9-5.1l-29.7,8C16.4,40.6,16.7,41,16.8,41.3 M67.6,21.6
		h-37l-30.1,19c-0.4,0.3-0.1,0.9,0.4,0.7l66.9-18.1c0.3-0.1,0.6-0.4,0.6-0.8C68.4,22,68,21.6,67.6,21.6"/>
	<path style="clip-path:url(#SVGID_2_);fill:#164194;" d="M31.4,42.2l5.2,5.8h1.6v-8.3h-1.7v5.7l-5.1-5.7h-1.7V48h1.7V42.2z
		 M52.6,36.9h5l1-1.6h-4.8v-6.7H52v7.7C52,36.7,52.2,36.9,52.6,36.9 M12.2,50.7c-1,0-2.1,0-3,0.1V59H11v-2.5c0.4,0,1,0,1.4,0
		c2.6,0,4.6-0.7,4.6-3C16.9,51.5,15.3,50.7,12.2,50.7 M14.8,54.5C14.3,55,13.3,55,12.3,55c-0.4,0-0.8,0-1.3,0v-2.6
		c0.4,0,0.9,0,1.3,0c1.4,0,2.1,0,2.6,0.5c0.2,0.2,0.3,0.5,0.3,0.7C15.1,54,15,54.3,14.8,54.5 M55.8,48.2c2.4,0,4.1-1.3,4.1-3.8v-4.7
		h-1.8v4.5c0,1.5-0.7,2.3-2.3,2.3c-1.6,0-2.3-0.8-2.3-2.3v-4.5h-1.8v4.7C51.7,46.9,53.4,48.2,55.8,48.2 M45,48
		c1.1,0,2.2-0.4,2.9-0.8l0.3,0.4c0.2,0.3,0.6,0.4,1.1,0.4h1.4l-1.6-1.9c0.6-0.7,0.9-1.5,0.9-2.3c0-2.4-1.9-4.2-5-4.2
		c-3.1,0-5,1.9-5,4.2S41.9,48,45,48 M45,41.1c1.8,0,3.2,1.1,3.2,2.6s-1.4,2.6-3.2,2.6c-1.8,0-3.2-1.1-3.2-2.6S43.1,41.1,45,41.1
		 M20.7,46.5h5.1l0.5,1c0.2,0.5,0.5,0.5,1.1,0.5h1l-4.3-8.4h-1.7L18,48h1.9L20.7,46.5z M23.2,41.5l1.8,3.5h-3.5L23.2,41.5z
		 M22.6,50.6c-3.1,0-5,1.9-5,4.3c0,2.4,1.9,4.3,5,4.3c3.1,0,5-1.9,5-4.3C27.6,52.5,25.8,50.6,22.6,50.6 M22.6,57.6
		c-1.9,0-3.2-1.1-3.2-2.7c0-1.7,1.3-2.7,3.2-2.7c1.9,0,3.2,1.1,3.2,2.7C25.8,56.6,24.5,57.6,22.6,57.6 M15.6,43.8L15.6,43.8
		c1-0.3,1.6-0.9,1.6-1.9c0-1.5-1.3-2.2-3.8-2.2c-1.2,0-3,0-4.1,0.1V48c1.3,0.1,2.8,0.1,4,0.1c2.5,0,4.2-0.6,4.2-2.4
		C17.5,44.7,16.7,44,15.6,43.8 M11,41.2h2.6c1.1,0,1.7,0.2,1.7,0.9c0,0.8-0.7,1-2,1H11V41.2z M13.5,46.6H11v-2h2.9
		c1,0,1.7,0.2,1.7,1C15.6,46.4,14.8,46.6,13.5,46.6 M56.2,50.8h-1.8v7.7c0,0.3,0.2,0.6,0.6,0.6H61v-1.6h-4.8V50.8z M62,58.5
		c0,0.3,0.2,0.6,0.6,0.6h6.7v-1.6h-5.6v-1.8h5V54h-5v-1.7h5.6v-1.6H62V58.5z M62,47.4c0,0.3,0.2,0.6,0.6,0.6h6.7v-1.6h-5.6v-1.8h5
		V43h-5v-1.7h5.6v-1.6H62V47.4z M67.4,36.4c0.2,0.5,0.5,0.5,1.1,0.5h1l-4.3-8.4h-1.7l-4.3,8.4h1.9l0.8-1.5h5.1L67.4,36.4z
		 M62.6,33.9l1.8-3.5l1.8,3.5H62.6z M30.6,53c0-0.6,0.8-0.9,1.9-0.9c0.8,0,2,0.4,2.3,0.6l0.9-1.3c-0.5-0.3-2-0.8-3.1-0.8
		c-2.1,0-3.7,1.1-3.7,2.6c0,2.9,5.6,1.9,5.6,3.5c0,0.7-1,0.9-1.9,0.9c-1.2,0-2.5-0.4-3.3-1L28.3,58c1.1,0.8,2.8,1.2,4,1.2
		c2.1,0,3.8-1,3.8-2.6C36.2,53.7,30.6,54.5,30.6,53 M44.6,50.8h-8.1v1.6h3.2V59h1.8v-6.7h3.2V50.8z M47.5,50.7L43.2,59h1.9l0.8-1.5
		h5.1l0.5,1c0.2,0.5,0.5,0.5,1.1,0.5h1l-4.3-8.4H47.5z M46.6,56l1.8-3.5l1.8,3.5H46.6z"/>
</g>
</svg>
