<?xml version="1.0" encoding="UTF-8"?>
<!-- Generator: Adobe Illustrator 21.1.0, SVG Export Plug-In . SVG Version: 6.00 Build 0)  -->
<svg version="1.1" id="Calque_1" xmlns="http://www.w3.org/2000/svg" xmlns:xlink="http://www.w3.org/1999/xlink" x="0px" y="0px" viewBox="0 0 193.8 40.8" style="enable-background:new 0 0 193.8 40.8;" xml:space="preserve">
<style type="text/css">
	.st0{fill:#181F22;}
	.st1{fill:#C4281A;}
	.st2{fill:#FFFFFF;}
</style>
<g>
	<rect x="40.8" class="st0" width="153" height="40.8"/>
	<g>
		<rect class="st1" width="40.8" height="40.8"/>
		<path class="st2" d="M34.8,18.9c-0.4-0.4-1-0.6-1.6-0.6c0,0,0,0,0,0c-0.2,0-0.4,0-0.8,0h-4.3c-0.2,0-0.5-0.1-0.6-0.3    c-0.1-0.1-0.2-0.2-0.2-0.3c-0.1-0.3-0.1-0.7,0.2-1l4.8-4.8c1-1,1-2.6,0.1-3.6c-1-1-2.6-0.9-3.5,0.1L24,13.3    c-0.2,0.3-0.6,0.3-0.9,0.2c-0.3-0.1-0.5-0.5-0.5-0.8V7.6c0-0.6-0.2-1.1-0.6-1.6c-0.4-0.4-0.9-0.6-1.5-0.6c-1.2,0-2.1,1-2.1,2.2    v5.1c0,0.4-0.2,0.7-0.5,0.8c-0.3,0.1-0.7,0.1-0.9-0.2L12,8.5c-1-1-2.6-1-3.6,0c-1,1-0.9,2.5,0,3.5l4.8,4.8    c0.3,0.2,0.3,0.6,0.2,0.9c-0.1,0.3-0.5,0.5-0.8,0.5l-5.1,0c-0.6,0-1.1,0.2-1.6,0.6c-0.4,0.4-0.6,0.9-0.6,1.5c0,1.2,1,2.1,2.2,2.1    h5.1c0.4,0,0.7,0.2,0.8,0.5c0.1,0.3,0.1,0.7-0.2,1l-4.8,4.8c-1,1-1,2.6-0.1,3.6c1,1,2.6,0.9,3.6,0l4.8-4.8    c0.2-0.3,0.6-0.3,0.9-0.2c0.3,0.1,0.5,0.5,0.5,0.8v5.1c0,1.2,0.9,2.2,2.1,2.2c1.2,0,2.1-1,2.1-2.2l0-5.1c0-0.4,0.2-0.7,0.5-0.8    c0.3-0.1,0.7-0.1,0.9,0.2l4.8,4.8c1,1,2.6,1,3.5,0c1-1,0.9-2.6-0.1-3.5L27.5,24c-0.3-0.3-0.3-0.6-0.2-1c0.1-0.3,0.4-0.5,0.8-0.5    h5.1c0.6,0,1.1-0.2,1.6-0.6c0.4-0.4,0.6-0.9,0.6-1.5C35.4,19.9,35.2,19.3,34.8,18.9z M22,24.1c0,1-0.8,1.8-1.7,1.8    c-1,0-1.8-0.8-1.8-1.8v-7.9c0-1,0.8-1.8,1.8-1.8c1,0,1.7,0.8,1.7,1.8V24.1z"/>
	</g>
	<g>
		<path class="st2" d="M61.6,33.2c-7,0-12.1-5.2-12.1-12.6C49.5,13.3,54.6,8,61.6,8c7,0,12.2,5.2,12.2,12.6    C73.8,28.1,68.6,33.2,61.6,33.2z M61.6,14.2c-3.4,0-5,2.8-5,6.5c0,3.7,1.6,6.5,5,6.5c3.4,0,5-3.1,5-6.5C66.6,17,65,14.2,61.6,14.2    z"/>
		<path class="st2" d="M124.7,33.2c-4.3,0-8.4-1.1-11.3-2.8l2.4-4.8c2.9,1.4,5.9,2.2,9.3,2.2c2.8,0,3.6-0.6,3.6-1.9    c0-1.1-1-1.7-3.9-2.4c-6.4-1.8-10.6-3.2-10.6-8.3c0-5,4.5-7.2,10.8-7.2c3.4,0,7.1,0.9,9.9,2.4l-2.2,5c-2.7-1.3-5.6-1.9-7.8-1.9    c-2.9,0-3.6,0.5-3.6,1.6c0,1,0.8,1.4,5.6,2.8c4.8,1.4,9,3,9,7.8C135.6,31.3,130.7,33.2,124.7,33.2z"/>
		<path class="st2" d="M160.1,22.7H144c0.3,3.3,3,4.6,5.5,4.6c1.9,0,3.6-0.6,4.6-1.7l5,3.8c-2.2,2.5-6,3.9-9.6,3.9    c-7.7,0-12.6-4.9-12.6-12.6c0-7.4,5.2-12.6,12-12.6c7.2,0,11.3,5.7,11.3,12.6C160.2,21.6,160.2,22.2,160.1,22.7z M148.5,13.6    c-2.5,0-4.1,1.9-4.4,4.3h9.2C153.1,15.7,151.7,13.6,148.5,13.6z"/>
		<path class="st2" d="M174.7,33.2c-2.4,0-4.4-0.8-5.7-1.9v10h-7.1V8.5h7.1v1.5c1.3-1.1,3.1-2,5.7-2c5.7,0,10.4,3.9,10.4,12.9    C185.1,28.2,181.3,33.2,174.7,33.2z M173.3,14c-2.2,0-3.3,0.8-4.4,2v9.1c1.1,1.3,2.7,2.1,4.8,2.1c2.7,0,4.2-2.1,4.2-6.2    C178,16.1,176.1,14,173.3,14z"/>
		<path class="st2" d="M99.5,29.6V19.1c0-6.8-3.1-11.1-9.9-11.1c-2.8,0-5.1,1-6.3,2.1V8.5h-7.1v21.1h0l0,0c0,2,1.6,3.5,3.5,3.5    c1.9,0,3.5-1.6,3.5-3.5c0,0,0-10.2,0-10.2c0-4.2,1.7-5.5,4.6-5.5c2.9,0,4.6,1.3,4.6,5.6v10c0,0,0,0,0,0c0,2,1.6,3.5,3.5,3.5    C97.9,33.2,99.5,31.6,99.5,29.6C99.5,29.6,99.5,29.6,99.5,29.6z"/>
		<path class="st2" d="M106.8,15.8c1.1,0,2-0.4,2.8-1.1c0.8-0.8,1.1-1.7,1.1-2.8c0-1.1-0.4-2-1.1-2.7c-0.8-0.8-1.7-1.1-2.8-1.1    c-1.1,0-2,0.4-2.7,1.1c-0.8,0.8-1.2,1.7-1.2,2.7c0,1.1,0.4,2,1.2,2.8C104.8,15.4,105.7,15.8,106.8,15.8z M110.3,17.2h-7v12.3    c0,0,0,0,0,0.1c0,0,0,0,0,0.1v0l0,0c0,0.9,0.4,1.8,1,2.4c0.7,0.7,1.5,1,2.5,1c1,0,1.8-0.4,2.5-1c0.7-0.7,1-1.5,1-2.5    c0,0,0-0.1,0-0.1V17.2z"/>
	</g>
</g>
<g>
</g>
<g>
</g>
<g>
</g>
<g>
</g>
<g>
</g>
<g>
</g>
<g>
</g>
<g>
</g>
<g>
</g>
<g>
</g>
<g>
</g>
</svg>