<svg xmlns="http://www.w3.org/2000/svg" viewBox="0 0 164 48" width="164" height="48"><style>.st0{fill:#fff}.st1{fill:#2a6654}.st2{fill:#c4d600}</style><path class="st0" d="M0 0h164v48H0z"/><path class="st1" d="M4 4h40v40H4z"/><path class="st2" d="M28.4 27.2l7.7 2.7c.5-.8.9-1.7 1.1-2.7h-8.8zM34.9 31.7l-9-4.5 6.3 7c.9-.8 1.9-1.6 2.7-2.5zM24.5 27.2l1.7 9.6c1.1-.3 2.3-.7 3.3-1.1l-5-8.5zM23 37.3l.6-10.1-4.5 9.8c1 .2 2 .3 3 .3h.9zM15.9 35.9l6.5-8.7-9.9 6c.9 1.1 2 2 3.4 2.7zM10.6 27.2c-.1 1.2 0 2.4.4 3.4l9.5-3.4h-9.9z"/><path class="st0" d="M19.1 25.7l.7-1.5h2.8l.9 1.5zM25.2 24.8l1.2-1.5h2.8l1.2 1.5zM22.7 24.2l1.4-4.2 1.4 4.2z"/><path d="M36.9 10.4c-1.8-.1-3.4-.2-5.5-.1-5 .2-9.6 2-13.4 5-3.6 2.9-6.1 6.4-7 10.4h.2c1.7-5.4 6.6-9.6 13.6-10.8 2.2-.3 5.2-.2 7.3.2l4.8-4.7z" fill="#cb521c"/><path class="st1" d="M148.7 27.4c-1.4 0-2.2-.5-2.2-1.4s.7-1.3 2.1-1.4l3.1-.2v2.7c-1.3.3-2.3.3-3 .3m.9-8.7c-1.5 0-2.7.2-4.4.5l.3 2.1c1.2-.2 2.6-.4 3.9-.4 1.5 0 2.3.6 2.3 1.8v.1l-2.9.2c-3.1.1-4.5 1.2-4.5 3.2 0 2.2 1.4 3.4 3.9 3.4 1.3 0 2.3 0 5.9-.5v-6.4c-.1-2.8-1.5-4-4.5-4m-11.2 0c-1.5 0-3.2.3-4.3.7-.7-.5-1.7-.7-2.8-.7-2 0-4.5.3-5.2.5V29h2.4v-8c.8-.1 1.5-.2 2.3-.2 1.6 0 2.3.7 2.3 2.3v5.8h2.5v-6.5c0-.5-.1-1-.2-1.3.8-.2 1.6-.3 2.4-.3 1.6 0 2.3.8 2.3 2.4V29h2.4v-6.4c.1-2.7-1.6-3.9-4.1-3.9m-19.8 8.7c-1.4 0-2.2-.5-2.2-1.4s.7-1.3 2.1-1.4l3.1-.2v2.7c-1.4.3-2.4.3-3 .3m.9-8.7c-1.5 0-2.7.2-4.4.5l.3 2.1c1.2-.2 2.6-.4 3.9-.4 1.5 0 2.3.6 2.3 1.8v.1l-2.9.2c-3.1.1-4.5 1.2-4.5 3.2 0 2.2 1.4 3.4 3.9 3.4 1.3 0 2.3 0 5.9-.5v-6.4c-.1-2.8-1.5-4-4.5-4m-11.8 8.4c-.8 0-1.5 0-2.9-.2v-6c.8-.1 1.7-.2 2.7-.2 2.2 0 3 1.4 3 3.3 0 1.8-1.1 3.1-2.8 3.1m.2-8.4c-2.1 0-4.2.3-5.5.5v13.9h2.4V29c1.4.2 2.2.2 3.2.2 2.9 0 4.9-2.1 4.9-5.2 0-3.2-1.8-5.3-5-5.3m-7.9.4h-2.5v8.1c-1 .1-1.9.2-2.8.2-1.5 0-2.3-.8-2.3-2.4v-5.9H90v6.5c0 2.8 1.7 3.9 4.2 3.9 2 0 4.7-.3 5.8-.5v-9.9zm-17.2 8.2c-1.9 0-3.2-1.3-3.2-3.2 0-1.9 1.3-3.2 3.2-3.2 1.9 0 3.1 1.3 3.1 3.2s-1.3 3.2-3.1 3.2m0-8.7c-3.4 0-5.6 2.2-5.6 5.4 0 3.3 2.3 5.5 5.6 5.5s5.6-2.2 5.6-5.5c0-3.2-2.3-5.4-5.6-5.4m-6.1.1c-1.9 0-4.4.3-6.2.6V29h2.4v-7.8c1.2-.1 2.4-.1 3.7-.1l.1-2.4zm-8.3 2.1h-7.6v2.4H66v3.1c-1.3.4-3 .6-4.2.6-3 0-5-2-5-5.1 0-3 2.2-5 5.6-5 .8 0 2.3.2 4.3.6L67 15c-1.8-.4-3.6-.6-5-.6-4.8 0-8.1 3-8.1 7.5 0 4.6 3.1 7.6 7.7 7.6 2.1 0 4.3-.6 6.7-1.6l.1-7.1z"/></svg>